<?xml version="1.0" standalone="no"?>
<!DOCTYPE svg PUBLIC "-//W3C//DTD SVG 20010904//EN"
 "http://www.w3.org/TR/2001/REC-SVG-20010904/DTD/svg10.dtd">
<svg version="1.0" xmlns="http://www.w3.org/2000/svg"
 width="512.000000pt" height="512.000000pt" viewBox="0 0 512.000000 512.000000"
 preserveAspectRatio="xMidYMid meet">
<metadata>
Created by potrace 1.11, written by Peter Selinger 2001-2013
</metadata>
<g transform="translate(0.000000,512.000000) scale(0.100000,-0.100000)"
fill="#000000" stroke="none">
<path d="M1845 3719 c-11 -16 -3 -17 35 -3 l35 12 -32 1 c-17 1 -35 -4 -38
-10z"/>
<path d="M2135 3613 c-75 -9 -96 -15 -92 -26 2 -8 29 -12 75 -12 39 0 75 -4
81 -10 6 -6 7 -27 1 -55 -5 -25 -12 -75 -15 -112 -10 -99 -24 -113 -118 -113
-42 0 -79 3 -83 8 -13 13 15 32 63 42 41 9 49 15 70 54 14 27 23 61 23 88 0
40 -2 43 -27 43 -16 0 -38 3 -50 6 -19 5 -23 2 -23 -17 -1 -67 -4 -69 -109
-69 -199 0 -590 -33 -775 -66 -45 -8 -82 -14 -83 -14 -2 0 -3 -35 -3 -77 l0
-78 90 0 c84 0 91 -2 117 -27 25 -25 27 -34 25 -93 -2 -70 -46 -437 -87 -714
-34 -232 -55 -268 -200 -332 -112 -50 -188 -28 -314 91 l-63 60 23 19 c21 17
24 30 30 117 3 55 14 118 23 142 9 24 14 48 11 53 -7 11 -118 12 -338 2 l-157
-6 0 -191 c0 -187 1 -192 27 -244 58 -115 116 -157 288 -208 151 -44 428 -44
727 1 69 10 122 26 186 55 49 22 95 40 102 40 21 0 4 25 -24 35 -20 7 -35 5
-60 -9 -27 -14 -38 -16 -55 -7 -11 7 -21 14 -21 16 0 12 65 36 85 31 19 -5 25
0 34 24 l10 31 36 -38 35 -38 39 42 c27 30 44 63 59 115 44 148 50 195 87 608
17 187 46 355 71 402 19 37 70 68 112 68 30 0 33 -2 30 -27 -2 -18 -14 -35
-35 -48 -28 -18 -33 -29 -52 -120 -32 -153 -48 -267 -76 -534 -14 -134 -25
-249 -25 -257 0 -8 18 -15 45 -19 63 -10 73 -21 67 -78 l-4 -48 -34 7 -34 6 0
-61 c0 -64 -1 -63 54 -65 31 -2 29 -22 -4 -46 -21 -15 -39 -20 -55 -16 -23 6
-25 11 -25 61 l0 55 -39 0 c-34 0 -42 -5 -60 -34 -66 -106 -206 -180 -396
-211 -108 -18 -675 -22 -675 -5 0 6 -7 10 -15 10 -8 0 -15 -5 -15 -11 0 -20
-157 12 -226 46 -103 50 -232 231 -250 350 -8 55 -24 59 -24 6 0 -54 63 -205
113 -270 42 -55 198 -203 300 -286 206 -167 440 -259 688 -272 189 -10 424 25
589 88 64 24 100 69 100 126 0 27 8 43 35 70 44 44 62 35 35 -17 -11 -22 -20
-55 -20 -74 0 -21 -6 -38 -15 -44 -23 -12 -10 -152 15 -152 26 0 32 12 14 31
-12 13 -14 28 -9 61 6 37 10 44 28 43 12 0 28 -4 35 -8 7 -5 12 -3 12 6 0 8
20 38 46 66 l45 50 30 -27 c17 -14 26 -28 20 -30 -14 -5 -14 -32 -1 -32 6 0
10 5 10 10 0 21 27 7 80 -41 30 -27 47 -47 37 -43 -21 8 -57 -21 -57 -46 0
-12 13 -21 40 -28 l40 -10 0 34 c0 19 3 34 6 34 3 0 24 -16 47 -35 l41 -35
195 0 c108 0 358 11 556 25 198 14 365 25 371 25 7 0 15 11 18 25 l6 25 248 0
c275 0 252 -4 556 91 122 38 176 76 223 157 15 26 41 61 58 78 51 50 134 330
170 569 26 173 15 467 -20 534 -31 60 -153 187 -295 306 -123 102 -156 126
-175 121 -19 -5 -24 -1 -28 23 -5 22 -19 35 -74 63 -146 77 -190 84 -563 98
-304 11 -380 11 -814 -8 l-480 -21 -55 48 c-99 84 -101 85 -186 74z m1615
-124 c96 -6 178 -13 183 -16 4 -2 54 -15 111 -28 120 -27 161 -46 239 -110 85
-69 123 -125 158 -234 28 -88 30 -103 24 -181 -7 -100 -50 -441 -65 -520 -14
-74 -109 -263 -162 -324 -40 -44 -46 -48 -76 -41 l-32 7 44 61 c24 34 53 80
64 103 36 71 100 356 137 611 13 91 14 127 6 185 -23 153 -128 301 -260 368
-40 20 -110 42 -180 56 -64 14 -129 28 -144 31 -16 3 -328 -2 -693 -12 -638
-18 -665 -18 -682 -1 -16 17 -11 18 118 13 82 -3 252 2 435 14 525 34 560 36
580 33 11 -2 99 -9 195 -15z m-52 -229 c63 -39 122 -163 122 -258 0 -25 -9
-97 -20 -161 -10 -64 -24 -172 -30 -241 -28 -308 -92 -464 -212 -514 -31 -13
-85 -16 -299 -16 l-262 0 7 38 c75 431 136 919 136 1094 0 41 3 48 23 53 47
11 218 22 357 24 129 1 149 -1 178 -19z m-1099 -290 c5 0 17 12 27 27 23 36
30 14 8 -29 -21 -42 -37 -52 -45 -30 -4 11 -13 -5 -27 -51 -31 -99 -49 -207
-72 -442 -30 -301 -43 -350 -102 -389 -35 -23 -159 -40 -169 -24 -7 10 -9 10
-9 1 0 -7 -8 -13 -19 -13 -27 0 -36 -16 -55 -95 l-17 -70 22 -18 c22 -17 22
-20 8 -45 -17 -32 -46 -39 -74 -18 -20 14 -20 16 -2 78 9 35 25 95 34 135 17
71 18 71 55 77 21 4 49 4 62 0 35 -8 109 27 136 66 18 25 26 58 37 153 29 252
74 613 79 640 4 18 12 27 24 27 35 0 50 12 50 41 0 32 18 126 28 149 4 8 8
-27 10 -77 1 -51 7 -93 11 -93z m279 128 c-7 -20 -48 -23 -48 -4 0 11 9 16 26
16 16 0 24 -5 22 -12z m-58 -39 c0 -10 -7 -19 -15 -19 -15 0 -21 31 -9 43 11
10 24 -3 24 -24z m248 1 c-7 -11 -16 -16 -21 -11 -12 12 0 31 19 31 12 0 12
-3 2 -20z m-1425 -50 c3 -14 1 -20 -6 -17 -7 2 -14 14 -15 26 -4 28 13 20 21
-9z m-283 -20 c0 -5 -9 -10 -20 -10 -11 0 -20 5 -20 10 0 6 9 10 20 10 11 0
20 -4 20 -10z m1062 -50 c36 0 44 -32 29 -108 -27 -139 -74 -427 -86 -530 -14
-121 -26 -151 -78 -182 -42 -26 -89 -27 -80 -2 5 13 1 12 -19 -5 -13 -13 -34
-23 -46 -23 -23 0 -30 14 -12 25 20 13 10 72 -19 113 -34 46 -43 53 -85 62
-35 7 -38 20 -10 35 11 6 19 17 19 25 0 21 85 17 101 -5 9 -11 18 30 44 185
24 145 37 200 46 200 8 0 14 5 14 10 0 6 -5 10 -11 10 -8 0 -10 19 -5 63 6 57
10 65 54 107 46 44 48 45 82 33 19 -7 47 -12 62 -13z m1635 -10 c9 -25 9 -30
-3 -30 -8 0 -14 3 -14 8 0 4 -3 17 -6 30 -9 33 10 27 23 -8z m-2107 -242 c0
-7 -3 -24 -7 -37 -6 -22 -6 -22 -19 9 -18 41 -18 40 6 40 11 0 20 -6 20 -12z
m0 -183 c0 -8 -7 -15 -15 -15 -8 0 -15 7 -15 15 0 8 7 15 15 15 8 0 15 -7 15
-15z m-1571 -68 c23 -25 20 -57 -6 -57 -10 0 -12 6 -8 19 7 23 -18 40 -62 42
l-28 1 30 8 c47 12 50 11 74 -13z m1571 -3 c0 -8 -7 -14 -15 -14 -15 0 -21 21
-9 33 10 9 24 -2 24 -19z m-1285 -71 c-9 -21 -25 -53 -35 -71 -13 -21 -17 -42
-14 -61 4 -16 2 -37 -4 -47 -9 -16 -12 -13 -26 20 l-16 38 -26 -21 c-15 -12
-39 -21 -54 -21 -24 0 -30 6 -43 45 -15 43 -15 45 3 45 10 0 22 -4 25 -10 17
-28 103 18 175 95 31 33 33 32 15 -12z m-225 -29 c0 -24 -5 -34 -15 -34 -10 0
-15 10 -15 33 0 19 3 37 6 40 13 13 24 -5 24 -39z m4088 -15 c-6 -16 -21 -37
-34 -46 l-24 -16 25 -44 c20 -37 22 -44 7 -38 -9 4 -36 14 -59 22 -24 8 -45
19 -48 23 -5 9 122 130 136 130 4 0 3 -14 -3 -31z m-2558 -19 c0 -5 -16 -10
-35 -10 -19 0 -35 5 -35 10 0 6 16 10 35 10 19 0 35 -4 35 -10z m-270 -75 c0
-14 -4 -25 -10 -25 -5 0 -10 11 -10 25 0 14 5 25 10 25 6 0 10 -11 10 -25z
m2167 -266 c20 -20 23 -20 29 -6 4 12 13 15 31 11 14 -4 43 -1 65 7 32 10 41
10 48 0 5 -9 10 -10 14 -2 4 6 19 11 33 11 24 0 23 -2 -22 -45 -45 -42 -50
-44 -66 -29 -17 15 -22 15 -64 -2 l-46 -19 3 -50 c3 -42 0 -50 -16 -53 -11 -3
-16 0 -11 7 7 13 -13 84 -23 79 -4 -2 -19 -10 -34 -17 -26 -13 -26 -14 -10
-40 l16 -26 -30 26 c-16 14 -36 28 -44 31 -30 10 -938 -38 -952 -50 -10 -8
-64 -12 -164 -11 -82 0 -187 -5 -234 -11 -47 -5 -102 -10 -122 -10 -35 0 -38
2 -38 29 l0 28 108 6 c59 4 186 9 282 13 145 5 189 10 253 30 75 23 83 24 200
13 140 -13 274 -6 342 16 37 13 50 14 61 4 15 -12 48 -11 234 10 47 5 93 13
103 16 31 12 18 25 -25 25 -42 1 -43 1 -18 15 36 21 70 18 97 -6z m528 11 c-3
-5 -13 -10 -21 -10 -8 0 -12 5 -9 10 3 6 13 10 21 10 8 0 12 -4 9 -10z m-865
-10 c0 -5 -16 -10 -35 -10 -19 0 -35 5 -35 10 0 6 16 10 35 10 19 0 35 -4 35
-10z m1005 -46 c14 -9 22 -20 19 -25 -6 -10 -54 19 -54 32 0 13 7 11 35 -7z
m-575 -56 c0 -19 -18 -43 -25 -36 -9 9 4 48 16 48 5 0 9 -6 9 -12z m-3335
-119 c4 -6 5 -12 3 -14 -7 -7 -48 7 -48 16 0 13 37 11 45 -2z m2091 -17 c-8
-9 -19 -13 -22 -9 -10 9 16 38 28 31 6 -4 4 -13 -6 -22z m533 12 c2 -2 2 -7
-2 -10 -8 -9 -47 6 -47 17 0 9 37 3 49 -7z m-1174 -80 c-15 -16 -43 -18 -64
-5 -11 7 -11 15 -1 46 l12 37 33 -32 c29 -28 32 -35 20 -46z m555 36 c0 -28
-2 -30 -38 -30 -21 0 -48 -7 -61 -16 -21 -15 -24 -15 -39 0 -15 14 -14 17 14
26 16 6 47 19 69 30 54 25 55 25 55 -10z m-630 -79 c0 -11 -4 -23 -10 -26 -6
-4 -10 5 -10 19 0 14 5 26 10 26 6 0 10 -9 10 -19z m390 -11 c0 -5 -15 -10
-34 -10 -19 0 -38 5 -41 10 -4 6 10 10 34 10 23 0 41 -4 41 -10z"/>
<path d="M3388 3225 c-4 -4 -44 -8 -90 -9 l-83 -2 -56 -552 -55 -553 76 2 c42
1 85 -3 96 -8 10 -6 35 -9 54 -6 78 10 197 36 221 49 45 23 77 71 104 156 27
84 33 126 59 378 27 258 29 295 17 366 -24 135 -74 172 -240 181 -53 3 -99 2
-103 -2z m12 -211 c0 -11 -5 -11 -25 -2 -13 6 -22 14 -20 19 8 12 45 -2 45
-17z m12 -56 c-14 -16 -28 -28 -31 -28 -3 1 -22 14 -41 31 l-35 30 67 -3 67
-3 -27 -27z m-74 -78 c-18 -31 -25 -37 -36 -27 -19 20 6 67 36 67 l23 0 -23
-40z m131 4 c2 -2 2 -7 -2 -10 -8 -9 -47 6 -47 17 0 9 37 3 49 -7z m204 -62
c10 -10 15 -21 13 -23 -3 -2 -16 -101 -30 -220 -29 -237 -43 -297 -81 -349
-32 -43 -43 -50 -82 -50 -29 0 -33 3 -33 26 0 14 9 60 19 102 10 43 22 118 25
167 4 50 12 152 18 228 l11 137 62 0 c47 0 66 -4 78 -18z m-313 -32 c-6 -11
-13 -20 -15 -20 -3 0 -5 9 -5 20 0 11 7 20 15 20 13 0 14 -4 5 -20z m-195
-538 c-8 -9 -25 20 -18 31 3 5 10 2 15 -7 6 -10 7 -20 3 -24z"/>
<path d="M2233 2495 c-8 -22 6 -33 17 -15 13 20 12 30 0 30 -6 0 -13 -7 -17
-15z"/>
<path d="M1726 3510 c-16 -5 -115 -14 -220 -20 -173 -9 -400 -31 -484 -46 -38
-7 -37 -4 -52 -167 -8 -86 -9 -122 -1 -131 9 -10 8 -15 -4 -20 -8 -3 -15 -12
-15 -19 0 -14 40 -37 64 -37 7 0 19 -12 26 -26 8 -14 42 -46 77 -72 42 -30 63
-53 63 -66 0 -12 -11 -124 -26 -251 -23 -208 -36 -275 -53 -275 -3 0 -71 52
-150 115 l-144 115 -328 0 -329 0 -4 -22 c-17 -79 -24 -123 -21 -126 2 -2 15
18 29 46 16 32 35 53 53 60 38 16 568 21 583 6 8 -8 6 -46 -6 -140 -24 -197
-8 -294 58 -334 102 -62 238 21 283 172 15 51 58 421 70 598 4 56 15 121 28
158 20 57 21 65 7 90 -13 21 -26 29 -68 36 -48 8 -54 7 -88 -19 -36 -28 -37
-28 -31 -6 5 20 3 22 -18 17 -39 -10 -49 14 -42 104 6 78 35 160 57 160 6 0
99 9 208 20 108 12 207 18 219 15 12 -3 128 8 257 25 130 16 244 31 253 32 27
2 -115 15 -172 16 -27 0 -63 -4 -79 -8z"/>
<path d="M418 2919 c5 -13 14 -25 20 -27 8 -2 9 3 4 19 -5 13 -14 25 -20 27
-8 2 -9 -3 -4 -19z"/>
<path d="M4966 2865 c-30 -45 -16 -47 53 -8 6 4 -20 33 -29 33 -4 0 -15 -11
-24 -25z"/>
<path d="M907 2845 c-4 -8 -2 -17 3 -20 6 -4 10 -4 10 -1 0 2 3 11 6 20 3 9 2
16 -4 16 -5 0 -12 -7 -15 -15z"/>
<path d="M100 2709 l0 -43 35 34 c19 19 35 35 35 36 0 1 -9 0 -20 -3 -11 -3
-27 0 -35 7 -13 11 -15 6 -15 -31z"/>
<path d="M1036 2725 c8 -37 9 -38 30 -33 15 3 14 7 -10 33 l-26 30 6 -30z"/>
<path d="M4972 2431 c2 -7 7 -12 11 -12 12 1 9 15 -3 20 -7 2 -11 -2 -8 -8z"/>
<path d="M248 1793 c-19 -5 -25 -23 -9 -23 17 0 41 12 41 21 0 9 -4 10 -32 2z"/>
<path d="M312 1791 c2 -7 7 -12 11 -12 12 1 9 15 -3 20 -7 2 -11 -2 -8 -8z"/>
<path d="M4560 1490 c0 -5 11 -10 25 -10 14 0 25 5 25 10 0 6 -11 10 -25 10
-14 0 -25 -4 -25 -10z"/>
<path d="M4874 1449 c-9 -10 -14 -22 -11 -26 9 -8 57 14 57 26 0 19 -29 19
-46 0z"/>
<path d="M4280 1390 c0 -5 12 -10 28 -9 24 0 25 1 7 9 -27 12 -35 12 -35 0z"/>
<path d="M4440 1390 c0 -5 5 -10 10 -10 6 0 10 5 10 10 0 6 -4 10 -10 10 -5 0
-10 -4 -10 -10z"/>
<path d="M498 1383 c7 -3 16 -2 19 1 4 3 -2 6 -13 5 -11 0 -14 -3 -6 -6z"/>
</g>
</svg>
